<svg xmlns="http://www.w3.org/2000/svg" viewBox="0 0 1200 760" preserveAspectRatio="none">
  <defs>
    <linearGradient id="sky" x1="0" y1="0" x2="0" y2="1"><stop offset="0" stop-color="#9bdcff"/><stop offset="0.48" stop-color="#d8f8ff"/><stop offset="1" stop-color="#b9edb6"/></linearGradient>
    <linearGradient id="pathFill" x1="0" y1="0" x2="1" y2="1"><stop offset="0" stop-color="#f6d38a"/><stop offset="0.5" stop-color="#ffdca3"/><stop offset="1" stop-color="#e2b36a"/></linearGradient>
    <filter id="softShadow" x="-20%" y="-20%" width="140%" height="140%"><feDropShadow dx="0" dy="12" stdDeviation="12" flood-color="#6b5a2e" flood-opacity="0.28"/></filter>
  </defs>
  <rect width="1200" height="760" fill="url(#sky)"/>
  <circle cx="990" cy="88" r="58" fill="#FFE082" opacity="0.85"/>
  <g opacity="0.72" transform="translate(190,120) scale(1.0)"><ellipse cx="0" cy="20" rx="70" ry="28" fill="#fff"/><ellipse cx="-38" cy="12" rx="34" ry="24" fill="#fff"/><ellipse cx="28" cy="6" rx="42" ry="30" fill="#fff"/></g><g opacity="0.72" transform="translate(970,110) scale(1.1)"><ellipse cx="0" cy="20" rx="70" ry="28" fill="#fff"/><ellipse cx="-38" cy="12" rx="34" ry="24" fill="#fff"/><ellipse cx="28" cy="6" rx="42" ry="30" fill="#fff"/></g><g opacity="0.72" transform="translate(620,95) scale(0.75)"><ellipse cx="0" cy="20" rx="70" ry="28" fill="#fff"/><ellipse cx="-38" cy="12" rx="34" ry="24" fill="#fff"/><ellipse cx="28" cy="6" rx="42" ry="30" fill="#fff"/></g>
  <path d="M0 330 C160 240 285 255 410 320 C545 390 675 350 805 290 C945 225 1090 255 1200 318 L1200 760 L0 760 Z" fill="#9fdc8b" opacity="0.95"/>
  <path d="M0 450 C135 380 240 395 365 460 C505 532 658 500 782 430 C940 340 1084 375 1200 455 L1200 760 L0 760 Z" fill="#78c86d" opacity="0.95"/>
  <path d="M0 590 C148 540 290 560 430 620 C585 688 745 675 890 610 C1020 552 1110 565 1200 610 L1200 760 L0 760 Z" fill="#57ae58" opacity="0.94"/>
  <g transform="translate(95,520) scale(0.9)"><rect x="-8" y="18" width="16" height="44" rx="6" fill="#8B5A2B"/><circle cx="0" cy="8" r="38" fill="#64B85E"/><circle cx="-24" cy="24" r="28" fill="#4EA34B"/><circle cx="25" cy="25" r="27" fill="#7AC66F"/></g><g transform="translate(220,675) scale(0.7)"><rect x="-8" y="18" width="16" height="44" rx="6" fill="#8B5A2B"/><circle cx="0" cy="8" r="38" fill="#64B85E"/><circle cx="-24" cy="24" r="28" fill="#4EA34B"/><circle cx="25" cy="25" r="27" fill="#7AC66F"/></g><g transform="translate(420,260) scale(0.8)"><rect x="-8" y="18" width="16" height="44" rx="6" fill="#8B5A2B"/><circle cx="0" cy="8" r="38" fill="#64B85E"/><circle cx="-24" cy="24" r="28" fill="#4EA34B"/><circle cx="25" cy="25" r="27" fill="#7AC66F"/></g><g transform="translate(760,680) scale(0.7)"><rect x="-8" y="18" width="16" height="44" rx="6" fill="#8B5A2B"/><circle cx="0" cy="8" r="38" fill="#64B85E"/><circle cx="-24" cy="24" r="28" fill="#4EA34B"/><circle cx="25" cy="25" r="27" fill="#7AC66F"/></g><g transform="translate(1020,260) scale(0.75)"><rect x="-8" y="18" width="16" height="44" rx="6" fill="#8B5A2B"/><circle cx="0" cy="8" r="38" fill="#64B85E"/><circle cx="-24" cy="24" r="28" fill="#4EA34B"/><circle cx="25" cy="25" r="27" fill="#7AC66F"/></g><g transform="translate(1145,530) scale(0.65)"><rect x="-8" y="18" width="16" height="44" rx="6" fill="#8B5A2B"/><circle cx="0" cy="8" r="38" fill="#64B85E"/><circle cx="-24" cy="24" r="28" fill="#4EA34B"/><circle cx="25" cy="25" r="27" fill="#7AC66F"/></g>
  <g opacity="0.55"><path d="M650 715 C725 650 725 615 800 575 C872 536 920 525 1020 470" fill="none" stroke="#ffffff" stroke-width="10" stroke-linecap="round" stroke-dasharray="5 24"/></g>
        <g transform="translate(1030 196)"><path d="M0 68 L42 0 L90 68 Z" fill="#8fcf7a"/><path d="M55 68 L93 8 L144 68 Z" fill="#6fb960"/><rect x="58" y="68" width="44" height="28" rx="8" fill="#8b5a2b"/></g>
  <path d="M 76 638 C 101.2 630.7, 106.8 572.3, 132 565 C 176.1 569.7, 185.9 607.3, 230 612 C 275.0 606.0, 285.0 558.0, 330 552 C 314.7 541.6, 311.3 458.4, 296 448 C 238.4 445.2, 225.6 422.8, 168 420 C 148.2 409.8, 143.8 328.2, 124 318 C 177.1 313.0, 188.9 273.0, 242 268 C 298.7 271.8, 311.3 302.2, 368 306 C 413.9 299.8, 424.1 250.2, 470 244 C 524.0 246.8, 536.0 269.2, 590 272 C 636.8 278.6, 647.2 331.4, 694 338 C 747.1 332.8, 758.9 291.2, 812 286 C 866.0 282.0, 878.0 250.0, 932 246 C 998.6 252.4, 1013.4 303.6, 1080 310 C 1098.9 320.2, 1103.1 401.8, 1122 412 C 1073.8 419.6, 1063.2 480.4, 1015 488 C 958.8 494.8, 946.2 549.2, 890 556 C 940.4 564.4, 951.6 631.6, 1002 640 C 1064.1 643.6, 1077.9 672.4, 1140 676" fill="none" stroke="#c79249" stroke-width="76" stroke-linecap="round" stroke-linejoin="round" opacity="0.54" filter="url(#softShadow)"/>
  <path d="M 76 638 C 101.2 630.7, 106.8 572.3, 132 565 C 176.1 569.7, 185.9 607.3, 230 612 C 275.0 606.0, 285.0 558.0, 330 552 C 314.7 541.6, 311.3 458.4, 296 448 C 238.4 445.2, 225.6 422.8, 168 420 C 148.2 409.8, 143.8 328.2, 124 318 C 177.1 313.0, 188.9 273.0, 242 268 C 298.7 271.8, 311.3 302.2, 368 306 C 413.9 299.8, 424.1 250.2, 470 244 C 524.0 246.8, 536.0 269.2, 590 272 C 636.8 278.6, 647.2 331.4, 694 338 C 747.1 332.8, 758.9 291.2, 812 286 C 866.0 282.0, 878.0 250.0, 932 246 C 998.6 252.4, 1013.4 303.6, 1080 310 C 1098.9 320.2, 1103.1 401.8, 1122 412 C 1073.8 419.6, 1063.2 480.4, 1015 488 C 958.8 494.8, 946.2 549.2, 890 556 C 940.4 564.4, 951.6 631.6, 1002 640 C 1064.1 643.6, 1077.9 672.4, 1140 676" fill="none" stroke="url(#pathFill)" stroke-width="60" stroke-linecap="round" stroke-linejoin="round"/>
  <path d="M 76 638 C 101.2 630.7, 106.8 572.3, 132 565 C 176.1 569.7, 185.9 607.3, 230 612 C 275.0 606.0, 285.0 558.0, 330 552 C 314.7 541.6, 311.3 458.4, 296 448 C 238.4 445.2, 225.6 422.8, 168 420 C 148.2 409.8, 143.8 328.2, 124 318 C 177.1 313.0, 188.9 273.0, 242 268 C 298.7 271.8, 311.3 302.2, 368 306 C 413.9 299.8, 424.1 250.2, 470 244 C 524.0 246.8, 536.0 269.2, 590 272 C 636.8 278.6, 647.2 331.4, 694 338 C 747.1 332.8, 758.9 291.2, 812 286 C 866.0 282.0, 878.0 250.0, 932 246 C 998.6 252.4, 1013.4 303.6, 1080 310 C 1098.9 320.2, 1103.1 401.8, 1122 412 C 1073.8 419.6, 1063.2 480.4, 1015 488 C 958.8 494.8, 946.2 549.2, 890 556 C 940.4 564.4, 951.6 631.6, 1002 640 C 1064.1 643.6, 1077.9 672.4, 1140 676" fill="none" stroke="#fff6d0" stroke-width="6" stroke-linecap="round" stroke-linejoin="round" stroke-dasharray="2 28" opacity="0.85"/>
  <text x="600" y="735" text-anchor="middle" font-family="Nunito, Arial, sans-serif" font-size="26" font-weight="900" fill="#2f6b2f" opacity="0.6">Orta Macera</text>
</svg>