<svg xmlns="http://www.w3.org/2000/svg" viewBox="0 0 1200 760" preserveAspectRatio="none">
  <defs>
    <linearGradient id="sky" x1="0" y1="0" x2="0" y2="1"><stop offset="0" stop-color="#9bdcff"/><stop offset="0.48" stop-color="#d8f8ff"/><stop offset="1" stop-color="#b9edb6"/></linearGradient>
    <linearGradient id="pathFill" x1="0" y1="0" x2="1" y2="1"><stop offset="0" stop-color="#f6d38a"/><stop offset="0.5" stop-color="#ffdca3"/><stop offset="1" stop-color="#e2b36a"/></linearGradient>
    <filter id="softShadow" x="-20%" y="-20%" width="140%" height="140%"><feDropShadow dx="0" dy="12" stdDeviation="12" flood-color="#6b5a2e" flood-opacity="0.28"/></filter>
  </defs>
  <rect width="1200" height="760" fill="url(#sky)"/>
  <circle cx="990" cy="88" r="58" fill="#FFE082" opacity="0.85"/>
  <g opacity="0.72" transform="translate(190,120) scale(1.0)"><ellipse cx="0" cy="20" rx="70" ry="28" fill="#fff"/><ellipse cx="-38" cy="12" rx="34" ry="24" fill="#fff"/><ellipse cx="28" cy="6" rx="42" ry="30" fill="#fff"/></g><g opacity="0.72" transform="translate(970,110) scale(1.1)"><ellipse cx="0" cy="20" rx="70" ry="28" fill="#fff"/><ellipse cx="-38" cy="12" rx="34" ry="24" fill="#fff"/><ellipse cx="28" cy="6" rx="42" ry="30" fill="#fff"/></g><g opacity="0.72" transform="translate(620,95) scale(0.75)"><ellipse cx="0" cy="20" rx="70" ry="28" fill="#fff"/><ellipse cx="-38" cy="12" rx="34" ry="24" fill="#fff"/><ellipse cx="28" cy="6" rx="42" ry="30" fill="#fff"/></g>
  <path d="M0 330 C160 240 285 255 410 320 C545 390 675 350 805 290 C945 225 1090 255 1200 318 L1200 760 L0 760 Z" fill="#9fdc8b" opacity="0.95"/>
  <path d="M0 450 C135 380 240 395 365 460 C505 532 658 500 782 430 C940 340 1084 375 1200 455 L1200 760 L0 760 Z" fill="#78c86d" opacity="0.95"/>
  <path d="M0 590 C148 540 290 560 430 620 C585 688 745 675 890 610 C1020 552 1110 565 1200 610 L1200 760 L0 760 Z" fill="#57ae58" opacity="0.94"/>
  <g transform="translate(95,520) scale(0.9)"><rect x="-8" y="18" width="16" height="44" rx="6" fill="#8B5A2B"/><circle cx="0" cy="8" r="38" fill="#64B85E"/><circle cx="-24" cy="24" r="28" fill="#4EA34B"/><circle cx="25" cy="25" r="27" fill="#7AC66F"/></g><g transform="translate(220,675) scale(0.7)"><rect x="-8" y="18" width="16" height="44" rx="6" fill="#8B5A2B"/><circle cx="0" cy="8" r="38" fill="#64B85E"/><circle cx="-24" cy="24" r="28" fill="#4EA34B"/><circle cx="25" cy="25" r="27" fill="#7AC66F"/></g><g transform="translate(420,260) scale(0.8)"><rect x="-8" y="18" width="16" height="44" rx="6" fill="#8B5A2B"/><circle cx="0" cy="8" r="38" fill="#64B85E"/><circle cx="-24" cy="24" r="28" fill="#4EA34B"/><circle cx="25" cy="25" r="27" fill="#7AC66F"/></g><g transform="translate(760,680) scale(0.7)"><rect x="-8" y="18" width="16" height="44" rx="6" fill="#8B5A2B"/><circle cx="0" cy="8" r="38" fill="#64B85E"/><circle cx="-24" cy="24" r="28" fill="#4EA34B"/><circle cx="25" cy="25" r="27" fill="#7AC66F"/></g><g transform="translate(1020,260) scale(0.75)"><rect x="-8" y="18" width="16" height="44" rx="6" fill="#8B5A2B"/><circle cx="0" cy="8" r="38" fill="#64B85E"/><circle cx="-24" cy="24" r="28" fill="#4EA34B"/><circle cx="25" cy="25" r="27" fill="#7AC66F"/></g><g transform="translate(1145,530) scale(0.65)"><rect x="-8" y="18" width="16" height="44" rx="6" fill="#8B5A2B"/><circle cx="0" cy="8" r="38" fill="#64B85E"/><circle cx="-24" cy="24" r="28" fill="#4EA34B"/><circle cx="25" cy="25" r="27" fill="#7AC66F"/></g>
  
  <path d="M 105 622 C 123.0 616.0, 127.0 568.0, 145 562 C 155.3 555.0, 157.7 499.0, 168 492 C 196.8 483.3, 203.2 413.7, 232 405 C 269.8 398.9, 278.2 350.1, 316 344 C 361.0 346.2, 371.0 363.8, 416 366 C 442.6 372.4, 448.4 423.6, 475 430 C 467.4 438.6, 465.6 507.4, 458 516 C 479.1 523.6, 483.9 584.4, 505 592 C 555.9 594.0, 567.1 610.0, 618 612 C 670.6 609.4, 682.4 588.6, 735 586 C 761.5 578.2, 767.5 515.8, 794 508 C 817.4 499.3, 822.6 429.7, 846 421 C 880.2 414.1, 887.8 358.9, 922 352 C 964.3 351.4, 973.7 346.6, 1016 346 C 1039.4 354.0, 1044.6 418.0, 1068 426 C 1046.4 436.0, 1041.6 516.0, 1020 526 C 1029.0 533.8, 1031.0 596.2, 1040 604 C 1071.5 606.8, 1078.5 629.2, 1110 632 C 1130.7 634.3, 1135.3 652.7, 1156 655" fill="none" stroke="#c79249" stroke-width="76" stroke-linecap="round" stroke-linejoin="round" opacity="0.54" filter="url(#softShadow)"/>
  <path d="M 105 622 C 123.0 616.0, 127.0 568.0, 145 562 C 155.3 555.0, 157.7 499.0, 168 492 C 196.8 483.3, 203.2 413.7, 232 405 C 269.8 398.9, 278.2 350.1, 316 344 C 361.0 346.2, 371.0 363.8, 416 366 C 442.6 372.4, 448.4 423.6, 475 430 C 467.4 438.6, 465.6 507.4, 458 516 C 479.1 523.6, 483.9 584.4, 505 592 C 555.9 594.0, 567.1 610.0, 618 612 C 670.6 609.4, 682.4 588.6, 735 586 C 761.5 578.2, 767.5 515.8, 794 508 C 817.4 499.3, 822.6 429.7, 846 421 C 880.2 414.1, 887.8 358.9, 922 352 C 964.3 351.4, 973.7 346.6, 1016 346 C 1039.4 354.0, 1044.6 418.0, 1068 426 C 1046.4 436.0, 1041.6 516.0, 1020 526 C 1029.0 533.8, 1031.0 596.2, 1040 604 C 1071.5 606.8, 1078.5 629.2, 1110 632 C 1130.7 634.3, 1135.3 652.7, 1156 655" fill="none" stroke="url(#pathFill)" stroke-width="60" stroke-linecap="round" stroke-linejoin="round"/>
  <path d="M 105 622 C 123.0 616.0, 127.0 568.0, 145 562 C 155.3 555.0, 157.7 499.0, 168 492 C 196.8 483.3, 203.2 413.7, 232 405 C 269.8 398.9, 278.2 350.1, 316 344 C 361.0 346.2, 371.0 363.8, 416 366 C 442.6 372.4, 448.4 423.6, 475 430 C 467.4 438.6, 465.6 507.4, 458 516 C 479.1 523.6, 483.9 584.4, 505 592 C 555.9 594.0, 567.1 610.0, 618 612 C 670.6 609.4, 682.4 588.6, 735 586 C 761.5 578.2, 767.5 515.8, 794 508 C 817.4 499.3, 822.6 429.7, 846 421 C 880.2 414.1, 887.8 358.9, 922 352 C 964.3 351.4, 973.7 346.6, 1016 346 C 1039.4 354.0, 1044.6 418.0, 1068 426 C 1046.4 436.0, 1041.6 516.0, 1020 526 C 1029.0 533.8, 1031.0 596.2, 1040 604 C 1071.5 606.8, 1078.5 629.2, 1110 632 C 1130.7 634.3, 1135.3 652.7, 1156 655" fill="none" stroke="#fff6d0" stroke-width="6" stroke-linecap="round" stroke-linejoin="round" stroke-dasharray="2 28" opacity="0.85"/>
  <text x="600" y="735" text-anchor="middle" font-family="Nunito, Arial, sans-serif" font-size="26" font-weight="900" fill="#2f6b2f" opacity="0.6">Giriş Macerası</text>
</svg>